<mxfile host="Electron" modified="2024-02-10T04:56:42.763Z" agent="Mozilla/5.0 (Macintosh; Intel Mac OS X 10_15_7) AppleWebKit/537.36 (KHTML, like Gecko) draw.io/22.1.2 Chrome/114.0.5735.289 Electron/25.9.4 Safari/537.36" etag="SC74UUnKVdrXy8MCAPEA" version="22.1.2" type="device">
  <diagram name="Page-1" id="jVVxIJuDWqEeyp6tNlM6">
    <mxGraphModel dx="1742" dy="567" grid="1" gridSize="10" guides="1" tooltips="1" connect="1" arrows="1" fold="1" page="1" pageScale="1" pageWidth="850" pageHeight="1100" math="0" shadow="0">
      <root>
        <mxCell id="0" />
        <mxCell id="1" parent="0" />
        <mxCell id="FvpEl_3jqBanYtJKAiTz-1" value="Analytical ETL" style="shape=process;whiteSpace=wrap;html=1;backgroundOutline=1;labelBackgroundColor=none;fillColor=#5D7F99;strokeColor=#D0CEE2;fontColor=#1A1A1A;rounded=1;" parent="1" vertex="1">
          <mxGeometry x="690" y="260" width="110" height="60" as="geometry" />
        </mxCell>
        <mxCell id="FvpEl_3jqBanYtJKAiTz-3" value="Source1.json" style="rounded=1;whiteSpace=wrap;html=1;labelBackgroundColor=none;fillColor=#5D7F99;strokeColor=#D0CEE2;fontColor=#1A1A1A;" parent="1" vertex="1">
          <mxGeometry x="-20" y="200" width="80" height="60" as="geometry" />
        </mxCell>
        <mxCell id="FvpEl_3jqBanYtJKAiTz-4" value="Source2.csv" style="rounded=1;whiteSpace=wrap;html=1;labelBackgroundColor=none;fillColor=#5D7F99;strokeColor=#D0CEE2;fontColor=#1A1A1A;" parent="1" vertex="1">
          <mxGeometry x="-20" y="320" width="80" height="60" as="geometry" />
        </mxCell>
        <mxCell id="FvpEl_3jqBanYtJKAiTz-5" value="EODF Load&lt;br&gt;(Accept)" style="shape=process;whiteSpace=wrap;html=1;backgroundOutline=1;labelBackgroundColor=none;fillColor=#5D7F99;strokeColor=#D0CEE2;fontColor=#1A1A1A;rounded=1;" parent="1" vertex="1">
          <mxGeometry x="490" y="260" width="110" height="60" as="geometry" />
        </mxCell>
        <mxCell id="FvpEl_3jqBanYtJKAiTz-6" value="Rejected Files" style="rounded=1;whiteSpace=wrap;html=1;labelBackgroundColor=none;fillColor=#5D7F99;strokeColor=#D0CEE2;fontColor=#1A1A1A;" parent="1" vertex="1">
          <mxGeometry x="280" y="280" width="100" height="40" as="geometry" />
        </mxCell>
        <mxCell id="FvpEl_3jqBanYtJKAiTz-8" value="Rejected JSON" style="rounded=1;whiteSpace=wrap;html=1;labelBackgroundColor=none;fillColor=#5D7F99;strokeColor=#D0CEE2;fontColor=#1A1A1A;" parent="1" vertex="1">
          <mxGeometry x="280" y="120" width="100" height="40" as="geometry" />
        </mxCell>
        <mxCell id="FvpEl_3jqBanYtJKAiTz-9" value="Accepted JSON" style="rounded=1;whiteSpace=wrap;html=1;labelBackgroundColor=none;fillColor=#5D7F99;strokeColor=#D0CEE2;fontColor=#1A1A1A;" parent="1" vertex="1">
          <mxGeometry x="280" y="200" width="100" height="40" as="geometry" />
        </mxCell>
        <mxCell id="FvpEl_3jqBanYtJKAiTz-10" value="Ingestion&lt;br&gt;(JSON)" style="shape=process;whiteSpace=wrap;html=1;backgroundOutline=1;labelBackgroundColor=none;fillColor=#5D7F99;strokeColor=#D0CEE2;fontColor=#1A1A1A;rounded=1;" parent="1" vertex="1">
          <mxGeometry x="120" y="200" width="110" height="60" as="geometry" />
        </mxCell>
        <mxCell id="FvpEl_3jqBanYtJKAiTz-11" value="Ingestion&lt;br&gt;(CSV)" style="shape=process;whiteSpace=wrap;html=1;backgroundOutline=1;labelBackgroundColor=none;fillColor=#5D7F99;strokeColor=#D0CEE2;fontColor=#1A1A1A;rounded=1;" parent="1" vertex="1">
          <mxGeometry x="120" y="330" width="110" height="60" as="geometry" />
        </mxCell>
        <mxCell id="FvpEl_3jqBanYtJKAiTz-13" value="" style="endArrow=classic;html=1;rounded=1;entryX=0;entryY=0.5;entryDx=0;entryDy=0;labelBackgroundColor=none;strokeColor=#736CA8;fontColor=default;exitX=1;exitY=0.5;exitDx=0;exitDy=0;" parent="1" source="FvpEl_3jqBanYtJKAiTz-3" target="FvpEl_3jqBanYtJKAiTz-10" edge="1">
          <mxGeometry width="50" height="50" relative="1" as="geometry">
            <mxPoint x="90" y="230" as="sourcePoint" />
            <mxPoint x="140" y="180" as="targetPoint" />
          </mxGeometry>
        </mxCell>
        <mxCell id="FvpEl_3jqBanYtJKAiTz-14" value="" style="endArrow=classic;html=1;rounded=1;exitX=1;exitY=0.5;exitDx=0;exitDy=0;labelBackgroundColor=none;strokeColor=#736CA8;fontColor=default;" parent="1" source="FvpEl_3jqBanYtJKAiTz-4" edge="1">
          <mxGeometry width="50" height="50" relative="1" as="geometry">
            <mxPoint x="100" y="240" as="sourcePoint" />
            <mxPoint x="120" y="350" as="targetPoint" />
          </mxGeometry>
        </mxCell>
        <mxCell id="FvpEl_3jqBanYtJKAiTz-27" value="EOD Trade Quote" style="shape=cylinder3;whiteSpace=wrap;html=1;boundedLbl=1;backgroundOutline=1;size=15;strokeColor=#D0CEE2;fontColor=#1A1A1A;fillColor=#5D7F99;labelBackgroundColor=none;rounded=1;" parent="1" vertex="1">
          <mxGeometry x="510" y="450" width="70" height="90" as="geometry" />
        </mxCell>
        <mxCell id="FvpEl_3jqBanYtJKAiTz-29" value="Accepted&amp;nbsp;&lt;br&gt;CSV" style="rounded=1;whiteSpace=wrap;html=1;strokeColor=#D0CEE2;fontColor=#1A1A1A;fillColor=#5D7F99;labelBackgroundColor=none;" parent="1" vertex="1">
          <mxGeometry x="280" y="360" width="100" height="40" as="geometry" />
        </mxCell>
        <mxCell id="FvpEl_3jqBanYtJKAiTz-40" value="quote-trade-analytical" style="shape=cylinder3;whiteSpace=wrap;html=1;boundedLbl=1;backgroundOutline=1;size=15;strokeColor=#D0CEE2;fontColor=#1A1A1A;fillColor=#5D7F99;labelBackgroundColor=none;rounded=1;" parent="1" vertex="1">
          <mxGeometry x="720" y="450" width="70" height="90" as="geometry" />
        </mxCell>
        <mxCell id="Lj8PYPbGq54b639Exkvu-1" value="Rejected CSV" style="rounded=1;whiteSpace=wrap;html=1;labelBackgroundColor=none;fillColor=#5D7F99;strokeColor=#D0CEE2;fontColor=#1A1A1A;" vertex="1" parent="1">
          <mxGeometry x="280" y="440" width="100" height="40" as="geometry" />
        </mxCell>
        <mxCell id="Lj8PYPbGq54b639Exkvu-3" value="" style="endArrow=classic;html=1;rounded=1;entryX=0;entryY=0.25;entryDx=0;entryDy=0;" edge="1" parent="1" target="FvpEl_3jqBanYtJKAiTz-6">
          <mxGeometry width="50" height="50" relative="1" as="geometry">
            <mxPoint x="230" y="230" as="sourcePoint" />
            <mxPoint x="270" y="280" as="targetPoint" />
          </mxGeometry>
        </mxCell>
        <mxCell id="Lj8PYPbGq54b639Exkvu-4" value="" style="endArrow=classic;html=1;rounded=1;entryX=0;entryY=0.5;entryDx=0;entryDy=0;" edge="1" parent="1" target="FvpEl_3jqBanYtJKAiTz-8">
          <mxGeometry width="50" height="50" relative="1" as="geometry">
            <mxPoint x="230" y="230" as="sourcePoint" />
            <mxPoint x="230" y="130" as="targetPoint" />
          </mxGeometry>
        </mxCell>
        <mxCell id="Lj8PYPbGq54b639Exkvu-5" value="" style="endArrow=classic;html=1;rounded=1;entryX=0;entryY=0.75;entryDx=0;entryDy=0;" edge="1" parent="1" target="FvpEl_3jqBanYtJKAiTz-9">
          <mxGeometry width="50" height="50" relative="1" as="geometry">
            <mxPoint x="230" y="230" as="sourcePoint" />
            <mxPoint x="280" y="180" as="targetPoint" />
          </mxGeometry>
        </mxCell>
        <mxCell id="Lj8PYPbGq54b639Exkvu-6" value="" style="endArrow=classic;html=1;rounded=1;exitX=1;exitY=0.5;exitDx=0;exitDy=0;" edge="1" parent="1" source="FvpEl_3jqBanYtJKAiTz-11">
          <mxGeometry width="50" height="50" relative="1" as="geometry">
            <mxPoint x="240" y="360" as="sourcePoint" />
            <mxPoint x="280" y="310" as="targetPoint" />
          </mxGeometry>
        </mxCell>
        <mxCell id="Lj8PYPbGq54b639Exkvu-7" value="" style="endArrow=classic;html=1;rounded=1;entryX=0;entryY=0.25;entryDx=0;entryDy=0;" edge="1" parent="1" target="FvpEl_3jqBanYtJKAiTz-29">
          <mxGeometry width="50" height="50" relative="1" as="geometry">
            <mxPoint x="230" y="370" as="sourcePoint" />
            <mxPoint x="280" y="420" as="targetPoint" />
          </mxGeometry>
        </mxCell>
        <mxCell id="Lj8PYPbGq54b639Exkvu-8" value="" style="endArrow=classic;html=1;rounded=1;entryX=0;entryY=0.5;entryDx=0;entryDy=0;exitX=1;exitY=0.75;exitDx=0;exitDy=0;" edge="1" parent="1" source="FvpEl_3jqBanYtJKAiTz-11" target="Lj8PYPbGq54b639Exkvu-1">
          <mxGeometry width="50" height="50" relative="1" as="geometry">
            <mxPoint x="230" y="370" as="sourcePoint" />
            <mxPoint x="280" y="335" as="targetPoint" />
          </mxGeometry>
        </mxCell>
        <mxCell id="Lj8PYPbGq54b639Exkvu-9" value="" style="endArrow=classic;html=1;rounded=1;entryX=-0.005;entryY=0.4;entryDx=0;entryDy=0;entryPerimeter=0;" edge="1" parent="1" target="FvpEl_3jqBanYtJKAiTz-5">
          <mxGeometry width="50" height="50" relative="1" as="geometry">
            <mxPoint x="380" y="220" as="sourcePoint" />
            <mxPoint x="430" y="170" as="targetPoint" />
          </mxGeometry>
        </mxCell>
        <mxCell id="Lj8PYPbGq54b639Exkvu-10" value="" style="endArrow=classic;html=1;rounded=1;entryX=0;entryY=0.75;entryDx=0;entryDy=0;" edge="1" parent="1" target="FvpEl_3jqBanYtJKAiTz-5">
          <mxGeometry width="50" height="50" relative="1" as="geometry">
            <mxPoint x="380" y="380" as="sourcePoint" />
            <mxPoint x="430" y="330" as="targetPoint" />
          </mxGeometry>
        </mxCell>
        <mxCell id="Lj8PYPbGq54b639Exkvu-11" value="" style="endArrow=classic;html=1;rounded=1;entryX=0;entryY=0.5;entryDx=0;entryDy=0;" edge="1" parent="1" target="FvpEl_3jqBanYtJKAiTz-1">
          <mxGeometry width="50" height="50" relative="1" as="geometry">
            <mxPoint x="600" y="290" as="sourcePoint" />
            <mxPoint x="650" y="240" as="targetPoint" />
          </mxGeometry>
        </mxCell>
        <mxCell id="Lj8PYPbGq54b639Exkvu-12" value="" style="endArrow=classic;html=1;rounded=1;entryX=0.5;entryY=0;entryDx=0;entryDy=0;entryPerimeter=0;" edge="1" parent="1" target="FvpEl_3jqBanYtJKAiTz-27">
          <mxGeometry width="50" height="50" relative="1" as="geometry">
            <mxPoint x="545" y="325" as="sourcePoint" />
            <mxPoint x="495" y="275" as="targetPoint" />
          </mxGeometry>
        </mxCell>
        <mxCell id="Lj8PYPbGq54b639Exkvu-13" value="" style="endArrow=classic;html=1;rounded=1;entryX=0.5;entryY=0;entryDx=0;entryDy=0;entryPerimeter=0;" edge="1" parent="1" target="FvpEl_3jqBanYtJKAiTz-40">
          <mxGeometry width="50" height="50" relative="1" as="geometry">
            <mxPoint x="755" y="320" as="sourcePoint" />
            <mxPoint x="705" y="270" as="targetPoint" />
          </mxGeometry>
        </mxCell>
      </root>
    </mxGraphModel>
  </diagram>
</mxfile>
